<mxfile host="app.diagrams.net" modified="2023-12-10T14:37:06.843Z" agent="Mozilla/5.0 (Windows NT 10.0; Win64; x64) AppleWebKit/537.36 (KHTML, like Gecko) Chrome/119.0.0.0 Safari/537.36" etag="ae5gNyI74bVnPjPOzrI9" version="22.1.7" type="device">
  <diagram name="Page-1" id="ginxksvSzcz0-wzwdIlH">
    <mxGraphModel dx="1381" dy="704" grid="1" gridSize="10" guides="1" tooltips="1" connect="1" arrows="1" fold="1" page="1" pageScale="1" pageWidth="1100" pageHeight="850" math="0" shadow="0">
      <root>
        <mxCell id="0" />
        <mxCell id="1" parent="0" />
        <mxCell id="zKjQf9NB6djR3ccAE8Gm-3" value="&lt;font style=&quot;font-size: 24px;&quot;&gt;&lt;b&gt;Alation&lt;/b&gt;&lt;/font&gt;" style="shape=singleArrow;whiteSpace=wrap;html=1;fillColor=#e3c800;fontColor=#000000;strokeColor=#B09500;" vertex="1" parent="1">
          <mxGeometry x="790" y="700" width="310" height="120" as="geometry" />
        </mxCell>
        <mxCell id="zKjQf9NB6djR3ccAE8Gm-2" value="&lt;font style=&quot;font-size: 24px;&quot;&gt;&lt;b&gt;Standardization&lt;/b&gt;&lt;/font&gt;" style="shape=singleArrow;whiteSpace=wrap;html=1;fillColor=#d5e8d4;gradientColor=#97d077;strokeColor=#82b366;" vertex="1" parent="1">
          <mxGeometry x="340" y="700" width="490" height="120" as="geometry" />
        </mxCell>
        <mxCell id="zKjQf9NB6djR3ccAE8Gm-1" value="&lt;font size=&quot;1&quot; style=&quot;&quot;&gt;&lt;b style=&quot;font-size: 24px;&quot;&gt;Archiving&lt;/b&gt;&lt;/font&gt;" style="shape=singleArrow;whiteSpace=wrap;html=1;fillColor=#b0e3e6;strokeColor=#0e8088;" vertex="1" parent="1">
          <mxGeometry y="700" width="420" height="120" as="geometry" />
        </mxCell>
        <mxCell id="zKjQf9NB6djR3ccAE8Gm-10" value="" style="html=1;shadow=0;dashed=0;align=center;verticalAlign=middle;shape=mxgraph.arrows2.jumpInArrow;dy=15;dx=38;arrowHead=55;rotation=60;" vertex="1" parent="1">
          <mxGeometry x="260" y="110" width="100" height="100" as="geometry" />
        </mxCell>
        <mxCell id="zKjQf9NB6djR3ccAE8Gm-11" value="" style="html=1;shadow=0;dashed=0;align=center;verticalAlign=middle;shape=mxgraph.arrows2.jumpInArrow;dy=15;dx=38;arrowHead=55;rotation=60;" vertex="1" parent="1">
          <mxGeometry x="430" y="200" width="100" height="100" as="geometry" />
        </mxCell>
        <mxCell id="zKjQf9NB6djR3ccAE8Gm-12" value="" style="html=1;shadow=0;dashed=0;align=center;verticalAlign=middle;shape=mxgraph.arrows2.jumpInArrow;dy=15;dx=38;arrowHead=55;rotation=60;" vertex="1" parent="1">
          <mxGeometry x="590" y="300" width="100" height="100" as="geometry" />
        </mxCell>
        <mxCell id="zKjQf9NB6djR3ccAE8Gm-13" value="" style="html=1;shadow=0;dashed=0;align=center;verticalAlign=middle;shape=mxgraph.arrows2.jumpInArrow;dy=15;dx=38;arrowHead=55;rotation=60;" vertex="1" parent="1">
          <mxGeometry x="760" y="410" width="100" height="100" as="geometry" />
        </mxCell>
        <mxCell id="zKjQf9NB6djR3ccAE8Gm-14" value="" style="html=1;shadow=0;dashed=0;align=center;verticalAlign=middle;shape=mxgraph.arrows2.jumpInArrow;dy=15;dx=38;arrowHead=55;rotation=60;" vertex="1" parent="1">
          <mxGeometry x="930" y="520" width="100" height="100" as="geometry" />
        </mxCell>
        <mxCell id="zKjQf9NB6djR3ccAE8Gm-4" value="&lt;font style=&quot;font-size: 24px;&quot;&gt;BUSINESS&lt;/font&gt;" style="rounded=1;whiteSpace=wrap;html=1;fillColor=#d0cee2;strokeColor=#56517e;" vertex="1" parent="1">
          <mxGeometry x="15" y="80" width="220" height="80" as="geometry" />
        </mxCell>
        <mxCell id="zKjQf9NB6djR3ccAE8Gm-5" value="&lt;font style=&quot;font-size: 24px;&quot;&gt;GOVERNANCE&lt;/font&gt;" style="rounded=1;whiteSpace=wrap;html=1;fillColor=#d0cee2;strokeColor=#56517e;" vertex="1" parent="1">
          <mxGeometry x="180" y="190" width="220" height="90" as="geometry" />
        </mxCell>
        <mxCell id="zKjQf9NB6djR3ccAE8Gm-6" value="&lt;font style=&quot;font-size: 24px;&quot;&gt;STRATEGY&lt;/font&gt;" style="rounded=1;whiteSpace=wrap;html=1;fillColor=#d0cee2;strokeColor=#56517e;" vertex="1" parent="1">
          <mxGeometry x="340" y="290" width="220" height="90" as="geometry" />
        </mxCell>
        <mxCell id="zKjQf9NB6djR3ccAE8Gm-7" value="&lt;font style=&quot;font-size: 24px;&quot;&gt;MASTER PLAN DATA&lt;/font&gt;" style="rounded=1;whiteSpace=wrap;html=1;fillColor=#f8cecc;strokeColor=#b85450;gradientColor=#ea6b66;" vertex="1" parent="1">
          <mxGeometry x="530" y="395" width="220" height="80" as="geometry" />
        </mxCell>
        <mxCell id="zKjQf9NB6djR3ccAE8Gm-8" value="&lt;font style=&quot;font-size: 24px;&quot;&gt;DELIVERABLES&lt;/font&gt;" style="rounded=1;whiteSpace=wrap;html=1;fillColor=#d0cee2;strokeColor=#56517e;" vertex="1" parent="1">
          <mxGeometry x="695" y="500" width="220" height="80" as="geometry" />
        </mxCell>
        <mxCell id="zKjQf9NB6djR3ccAE8Gm-9" value="&lt;font style=&quot;font-size: 24px;&quot;&gt;RESULTS&lt;/font&gt;" style="rounded=1;whiteSpace=wrap;html=1;fillColor=#d0cee2;strokeColor=#56517e;" vertex="1" parent="1">
          <mxGeometry x="860" y="610" width="220" height="70" as="geometry" />
        </mxCell>
        <mxCell id="zKjQf9NB6djR3ccAE8Gm-15" value="&lt;b style=&quot;font-size: 17px;&quot;&gt;Understands and adopt&lt;br&gt;&lt;/b&gt;" style="text;html=1;align=center;verticalAlign=middle;resizable=0;points=[];autosize=1;strokeColor=none;fillColor=none;" vertex="1" parent="1">
          <mxGeometry x="60" y="160" width="210" height="30" as="geometry" />
        </mxCell>
        <mxCell id="zKjQf9NB6djR3ccAE8Gm-16" value="&lt;b style=&quot;font-size: 17px;&quot;&gt;Requires&lt;/b&gt;" style="text;html=1;align=center;verticalAlign=middle;resizable=0;points=[];autosize=1;strokeColor=none;fillColor=none;" vertex="1" parent="1">
          <mxGeometry x="440" y="380" width="100" height="30" as="geometry" />
        </mxCell>
        <mxCell id="zKjQf9NB6djR3ccAE8Gm-17" value="&lt;span style=&quot;font-size: 17px;&quot;&gt;&lt;b&gt;Generates&lt;/b&gt;&lt;/span&gt;" style="text;html=1;align=center;verticalAlign=middle;resizable=0;points=[];autosize=1;strokeColor=none;fillColor=none;" vertex="1" parent="1">
          <mxGeometry x="810" y="580" width="110" height="30" as="geometry" />
        </mxCell>
        <mxCell id="zKjQf9NB6djR3ccAE8Gm-18" value="&lt;span style=&quot;font-size: 17px;&quot;&gt;&lt;b&gt;Customize&lt;/b&gt;&lt;/span&gt;" style="text;html=1;align=center;verticalAlign=middle;resizable=0;points=[];autosize=1;strokeColor=none;fillColor=none;" vertex="1" parent="1">
          <mxGeometry x="590" y="480" width="110" height="30" as="geometry" />
        </mxCell>
        <mxCell id="zKjQf9NB6djR3ccAE8Gm-19" value="&lt;b style=&quot;font-size: 17px;&quot;&gt;Reduce costs&lt;br&gt;&lt;/b&gt;" style="text;html=1;align=center;verticalAlign=middle;resizable=0;points=[];autosize=1;strokeColor=none;fillColor=none;rotation=-24;" vertex="1" parent="1">
          <mxGeometry x="280" y="60" width="130" height="30" as="geometry" />
        </mxCell>
        <mxCell id="zKjQf9NB6djR3ccAE8Gm-20" value="&lt;b style=&quot;font-size: 17px;&quot;&gt;Data-Driven&lt;br&gt;&lt;/b&gt;" style="text;html=1;align=center;verticalAlign=middle;resizable=0;points=[];autosize=1;strokeColor=none;fillColor=none;rotation=-24;" vertex="1" parent="1">
          <mxGeometry x="325" y="70" width="120" height="30" as="geometry" />
        </mxCell>
        <mxCell id="zKjQf9NB6djR3ccAE8Gm-21" value="&lt;span style=&quot;font-size: 17px;&quot;&gt;&lt;b&gt;Define&lt;/b&gt;&lt;/span&gt;" style="text;html=1;align=center;verticalAlign=middle;resizable=0;points=[];autosize=1;strokeColor=none;fillColor=none;" vertex="1" parent="1">
          <mxGeometry x="245" y="290" width="80" height="30" as="geometry" />
        </mxCell>
        <mxCell id="zKjQf9NB6djR3ccAE8Gm-22" value="&lt;b style=&quot;font-size: 17px;&quot;&gt;What data must be governed?&lt;br&gt;&lt;/b&gt;" style="text;html=1;align=center;verticalAlign=middle;resizable=0;points=[];autosize=1;strokeColor=none;fillColor=none;rotation=-24;" vertex="1" parent="1">
          <mxGeometry x="460" y="130" width="270" height="30" as="geometry" />
        </mxCell>
        <mxCell id="zKjQf9NB6djR3ccAE8Gm-23" value="&lt;b style=&quot;font-size: 17px;&quot;&gt;Why ?&lt;br&gt;&lt;/b&gt;" style="text;html=1;align=center;verticalAlign=middle;resizable=0;points=[];autosize=1;strokeColor=none;fillColor=none;rotation=-24;" vertex="1" parent="1">
          <mxGeometry x="520" y="180" width="70" height="30" as="geometry" />
        </mxCell>
        <mxCell id="zKjQf9NB6djR3ccAE8Gm-24" value="&lt;b style=&quot;font-size: 17px;&quot;&gt;When ?&lt;br&gt;&lt;/b&gt;" style="text;html=1;align=center;verticalAlign=middle;resizable=0;points=[];autosize=1;strokeColor=none;fillColor=none;rotation=-24;" vertex="1" parent="1">
          <mxGeometry x="660" y="150" width="80" height="30" as="geometry" />
        </mxCell>
        <mxCell id="zKjQf9NB6djR3ccAE8Gm-25" value="&lt;b style=&quot;font-size: 17px;&quot;&gt;Answer how to govern the data&lt;br&gt;&lt;/b&gt;" style="text;html=1;align=center;verticalAlign=middle;resizable=0;points=[];autosize=1;strokeColor=none;fillColor=none;rotation=-24;" vertex="1" parent="1">
          <mxGeometry x="640" y="250" width="280" height="30" as="geometry" />
        </mxCell>
        <mxCell id="zKjQf9NB6djR3ccAE8Gm-26" value="&lt;b style=&quot;font-size: 17px;&quot;&gt;Meta data manegement&lt;br&gt;&lt;/b&gt;" style="text;html=1;align=center;verticalAlign=middle;resizable=0;points=[];autosize=1;strokeColor=none;fillColor=none;rotation=-24;" vertex="1" parent="1">
          <mxGeometry x="835" y="370" width="210" height="30" as="geometry" />
        </mxCell>
        <mxCell id="zKjQf9NB6djR3ccAE8Gm-27" value="&lt;b style=&quot;font-size: 17px;&quot;&gt;Data Quality?&lt;br&gt;&lt;/b&gt;" style="text;html=1;align=center;verticalAlign=middle;resizable=0;points=[];autosize=1;strokeColor=none;fillColor=none;rotation=-24;" vertex="1" parent="1">
          <mxGeometry x="900" y="390" width="130" height="30" as="geometry" />
        </mxCell>
        <mxCell id="zKjQf9NB6djR3ccAE8Gm-28" value="&lt;b style=&quot;font-size: 17px;&quot;&gt;Responsability document&lt;br&gt;&lt;/b&gt;" style="text;html=1;align=center;verticalAlign=middle;resizable=0;points=[];autosize=1;strokeColor=none;fillColor=none;rotation=-24;" vertex="1" parent="1">
          <mxGeometry x="850" y="330" width="230" height="30" as="geometry" />
        </mxCell>
        <mxCell id="zKjQf9NB6djR3ccAE8Gm-29" value="&lt;b style=&quot;font-size: 17px;&quot;&gt;Sent to Alation&lt;br&gt;&lt;/b&gt;" style="text;html=1;align=center;verticalAlign=middle;resizable=0;points=[];autosize=1;strokeColor=none;fillColor=none;rotation=-24;" vertex="1" parent="1">
          <mxGeometry x="960" y="490" width="140" height="30" as="geometry" />
        </mxCell>
        <mxCell id="zKjQf9NB6djR3ccAE8Gm-31" value="" style="html=1;shadow=0;dashed=0;align=center;verticalAlign=middle;shape=mxgraph.arrows2.bendArrow;dy=15;dx=38;notch=0;arrowHead=55;rounded=1;rotation=-90;" vertex="1" parent="1">
          <mxGeometry x="-8.75" y="218.75" width="465" height="407.5" as="geometry" />
        </mxCell>
        <mxCell id="zKjQf9NB6djR3ccAE8Gm-32" value="&lt;b&gt;&lt;font style=&quot;font-size: 17px;&quot;&gt;Financial benefits&lt;/font&gt;&lt;/b&gt;" style="text;html=1;align=center;verticalAlign=middle;resizable=0;points=[];autosize=1;strokeColor=none;fillColor=none;rotation=-24;" vertex="1" parent="1">
          <mxGeometry x="360" y="70" width="170" height="30" as="geometry" />
        </mxCell>
        <mxCell id="zKjQf9NB6djR3ccAE8Gm-38" value="&lt;b style=&quot;font-size: 17px;&quot;&gt;Where is the data?&lt;br&gt;&lt;/b&gt;" style="text;html=1;align=center;verticalAlign=middle;resizable=0;points=[];autosize=1;strokeColor=none;fillColor=none;rotation=-24;" vertex="1" parent="1">
          <mxGeometry x="580" y="130" width="170" height="30" as="geometry" />
        </mxCell>
        <mxCell id="zKjQf9NB6djR3ccAE8Gm-39" value="&lt;b style=&quot;font-size: 17px;&quot;&gt;Is classified?&lt;br&gt;&lt;/b&gt;" style="text;html=1;align=center;verticalAlign=middle;resizable=0;points=[];autosize=1;strokeColor=none;fillColor=none;rotation=-24;" vertex="1" parent="1">
          <mxGeometry x="540" y="190" width="130" height="30" as="geometry" />
        </mxCell>
        <mxCell id="zKjQf9NB6djR3ccAE8Gm-40" value="&lt;b&gt;&lt;font style=&quot;font-size: 15px;&quot;&gt;User&#39;s Feedback&lt;/font&gt;&lt;/b&gt;" style="html=1;shadow=0;dashed=0;align=center;verticalAlign=middle;shape=mxgraph.arrows2.arrow;dy=0.6;dx=40;flipH=1;notch=0;" vertex="1" parent="1">
          <mxGeometry x="570" y="650" width="280" height="35" as="geometry" />
        </mxCell>
        <mxCell id="zKjQf9NB6djR3ccAE8Gm-43" value="&lt;b style=&quot;font-size: 14px;&quot;&gt;- Metrics&lt;br&gt;- Insights&lt;br&gt;- New Knowledge&lt;br&gt;- Tracking of problems&lt;/b&gt;" style="whiteSpace=wrap;html=1;shape=mxgraph.basic.document" vertex="1" parent="1">
          <mxGeometry x="440" y="540" width="130" height="150" as="geometry" />
        </mxCell>
        <mxCell id="zKjQf9NB6djR3ccAE8Gm-44" value="&lt;span style=&quot;font-size: 17px;&quot;&gt;&lt;b&gt;Improve process&lt;br&gt;&lt;/b&gt;&lt;/span&gt;" style="text;html=1;align=center;verticalAlign=middle;resizable=0;points=[];autosize=1;strokeColor=none;fillColor=none;rotation=-24;" vertex="1" parent="1">
          <mxGeometry x="360" y="100" width="160" height="30" as="geometry" />
        </mxCell>
        <mxCell id="zKjQf9NB6djR3ccAE8Gm-45" value="&lt;b style=&quot;font-size: 17px;&quot;&gt;Do not create isolated &lt;/b&gt;&lt;span style=&quot;font-size: 17px;&quot;&gt;&lt;b&gt;initiatives&lt;/b&gt;&lt;/span&gt;" style="text;html=1;align=center;verticalAlign=middle;resizable=0;points=[];autosize=1;strokeColor=none;fillColor=none;rotation=-24;" vertex="1" parent="1">
          <mxGeometry x="690" y="260" width="280" height="30" as="geometry" />
        </mxCell>
        <mxCell id="zKjQf9NB6djR3ccAE8Gm-46" value="&lt;b&gt;&lt;font style=&quot;font-size: 15px;&quot;&gt;Process&#39;s Feedback&lt;/font&gt;&lt;/b&gt;" style="html=1;shadow=0;dashed=0;align=center;verticalAlign=middle;shape=mxgraph.arrows2.arrow;dy=0.6;dx=40;flipH=1;notch=0;" vertex="1" parent="1">
          <mxGeometry x="570" y="610" width="280" height="35" as="geometry" />
        </mxCell>
      </root>
    </mxGraphModel>
  </diagram>
</mxfile>
